<mxfile host="app.diagrams.net" modified="2023-10-15T02:45:06.903Z" agent="Mozilla/5.0 (Windows NT 10.0; Win64; x64) AppleWebKit/537.36 (KHTML, like Gecko) Chrome/117.0.0.0 Safari/537.36" etag="QQWhusAwv7VfycpOKrVQ" version="22.0.4" type="github">
  <diagram id="C5RBs43oDa-KdzZeNtuy" name="Page-1">
    <mxGraphModel dx="1545" dy="3111" grid="1" gridSize="10" guides="1" tooltips="1" connect="1" arrows="1" fold="1" page="1" pageScale="1" pageWidth="827" pageHeight="1169" math="0" shadow="0">
      <root>
        <mxCell id="WIyWlLk6GJQsqaUBKTNV-0" />
        <mxCell id="WIyWlLk6GJQsqaUBKTNV-1" parent="WIyWlLk6GJQsqaUBKTNV-0" />
        <mxCell id="71WJE7ZSkF-fX_JuGLKn-9" value="" style="edgeStyle=orthogonalEdgeStyle;rounded=0;orthogonalLoop=1;jettySize=auto;html=1;" edge="1" parent="WIyWlLk6GJQsqaUBKTNV-1" source="71WJE7ZSkF-fX_JuGLKn-0" target="71WJE7ZSkF-fX_JuGLKn-1">
          <mxGeometry relative="1" as="geometry" />
        </mxCell>
        <mxCell id="71WJE7ZSkF-fX_JuGLKn-0" value="start" style="rounded=1;whiteSpace=wrap;html=1;" vertex="1" parent="WIyWlLk6GJQsqaUBKTNV-1">
          <mxGeometry x="30" y="-2020" width="120" height="60" as="geometry" />
        </mxCell>
        <mxCell id="71WJE7ZSkF-fX_JuGLKn-10" value="" style="edgeStyle=orthogonalEdgeStyle;rounded=0;orthogonalLoop=1;jettySize=auto;html=1;" edge="1" parent="WIyWlLk6GJQsqaUBKTNV-1" source="71WJE7ZSkF-fX_JuGLKn-1" target="71WJE7ZSkF-fX_JuGLKn-2">
          <mxGeometry relative="1" as="geometry" />
        </mxCell>
        <mxCell id="71WJE7ZSkF-fX_JuGLKn-1" value="Tên khách hàng&lt;br&gt;Kiểu khách hàng&lt;br&gt;Số người" style="shape=parallelogram;perimeter=parallelogramPerimeter;whiteSpace=wrap;html=1;fixedSize=1;" vertex="1" parent="WIyWlLk6GJQsqaUBKTNV-1">
          <mxGeometry x="30" y="-1860" width="120" height="60" as="geometry" />
        </mxCell>
        <mxCell id="71WJE7ZSkF-fX_JuGLKn-11" value="" style="edgeStyle=orthogonalEdgeStyle;rounded=0;orthogonalLoop=1;jettySize=auto;html=1;" edge="1" parent="WIyWlLk6GJQsqaUBKTNV-1" source="71WJE7ZSkF-fX_JuGLKn-2" target="71WJE7ZSkF-fX_JuGLKn-3">
          <mxGeometry relative="1" as="geometry" />
        </mxCell>
        <mxCell id="71WJE7ZSkF-fX_JuGLKn-15" value="" style="edgeStyle=orthogonalEdgeStyle;rounded=0;orthogonalLoop=1;jettySize=auto;html=1;" edge="1" parent="WIyWlLk6GJQsqaUBKTNV-1" source="71WJE7ZSkF-fX_JuGLKn-2" target="71WJE7ZSkF-fX_JuGLKn-12">
          <mxGeometry relative="1" as="geometry" />
        </mxCell>
        <mxCell id="71WJE7ZSkF-fX_JuGLKn-2" value="Số nước tháng này" style="shape=parallelogram;perimeter=parallelogramPerimeter;whiteSpace=wrap;html=1;fixedSize=1;" vertex="1" parent="WIyWlLk6GJQsqaUBKTNV-1">
          <mxGeometry x="30" y="-1700" width="120" height="60" as="geometry" />
        </mxCell>
        <mxCell id="71WJE7ZSkF-fX_JuGLKn-14" value="" style="edgeStyle=orthogonalEdgeStyle;rounded=0;orthogonalLoop=1;jettySize=auto;html=1;" edge="1" parent="WIyWlLk6GJQsqaUBKTNV-1" source="71WJE7ZSkF-fX_JuGLKn-3" target="71WJE7ZSkF-fX_JuGLKn-12">
          <mxGeometry relative="1" as="geometry" />
        </mxCell>
        <mxCell id="71WJE7ZSkF-fX_JuGLKn-18" value="" style="edgeStyle=orthogonalEdgeStyle;rounded=0;orthogonalLoop=1;jettySize=auto;html=1;" edge="1" parent="WIyWlLk6GJQsqaUBKTNV-1" source="71WJE7ZSkF-fX_JuGLKn-3" target="71WJE7ZSkF-fX_JuGLKn-17">
          <mxGeometry relative="1" as="geometry" />
        </mxCell>
        <mxCell id="71WJE7ZSkF-fX_JuGLKn-3" value="Số nước tháng trước" style="shape=parallelogram;perimeter=parallelogramPerimeter;whiteSpace=wrap;html=1;fixedSize=1;" vertex="1" parent="WIyWlLk6GJQsqaUBKTNV-1">
          <mxGeometry x="25" y="-1470" width="130" height="60" as="geometry" />
        </mxCell>
        <mxCell id="71WJE7ZSkF-fX_JuGLKn-12" value="Số nước tháng này -số nước tháng trước" style="rounded=0;whiteSpace=wrap;html=1;" vertex="1" parent="WIyWlLk6GJQsqaUBKTNV-1">
          <mxGeometry x="220" y="-1580" width="240" height="60" as="geometry" />
        </mxCell>
        <mxCell id="71WJE7ZSkF-fX_JuGLKn-20" value="" style="edgeStyle=orthogonalEdgeStyle;rounded=0;orthogonalLoop=1;jettySize=auto;html=1;" edge="1" parent="WIyWlLk6GJQsqaUBKTNV-1" source="71WJE7ZSkF-fX_JuGLKn-17" target="71WJE7ZSkF-fX_JuGLKn-19">
          <mxGeometry relative="1" as="geometry" />
        </mxCell>
        <mxCell id="71WJE7ZSkF-fX_JuGLKn-17" value="Giá trị 1 =5.973&lt;br&gt;Giá trị 2 = 7.052&lt;br&gt;Giá trị 3 = 8.669&lt;br&gt;Giá trị 4 = 15.929&lt;br&gt;Giá trị 5=9.955&lt;br&gt;Giá trị 6 =11.615&lt;br&gt;Giá trị 7 22.068" style="shape=parallelogram;perimeter=parallelogramPerimeter;whiteSpace=wrap;html=1;fixedSize=1;" vertex="1" parent="WIyWlLk6GJQsqaUBKTNV-1">
          <mxGeometry x="30" y="-1330" width="120" height="150" as="geometry" />
        </mxCell>
        <mxCell id="71WJE7ZSkF-fX_JuGLKn-73" value="" style="edgeStyle=orthogonalEdgeStyle;rounded=0;orthogonalLoop=1;jettySize=auto;html=1;" edge="1" parent="WIyWlLk6GJQsqaUBKTNV-1" source="71WJE7ZSkF-fX_JuGLKn-19">
          <mxGeometry relative="1" as="geometry">
            <mxPoint x="95" y="-310" as="targetPoint" />
            <Array as="points">
              <mxPoint x="90" y="-645" />
              <mxPoint x="96" y="-645" />
              <mxPoint x="96" y="-310" />
            </Array>
          </mxGeometry>
        </mxCell>
        <mxCell id="71WJE7ZSkF-fX_JuGLKn-81" value="" style="edgeStyle=orthogonalEdgeStyle;rounded=0;orthogonalLoop=1;jettySize=auto;html=1;" edge="1" parent="WIyWlLk6GJQsqaUBKTNV-1" source="71WJE7ZSkF-fX_JuGLKn-19" target="71WJE7ZSkF-fX_JuGLKn-23">
          <mxGeometry relative="1" as="geometry" />
        </mxCell>
        <mxCell id="71WJE7ZSkF-fX_JuGLKn-19" value="HouseHold" style="shape=parallelogram;perimeter=parallelogramPerimeter;whiteSpace=wrap;html=1;fixedSize=1;" vertex="1" parent="WIyWlLk6GJQsqaUBKTNV-1">
          <mxGeometry x="30" y="-1040" width="120" height="60" as="geometry" />
        </mxCell>
        <mxCell id="71WJE7ZSkF-fX_JuGLKn-27" value="" style="edgeStyle=orthogonalEdgeStyle;rounded=0;orthogonalLoop=1;jettySize=auto;html=1;" edge="1" parent="WIyWlLk6GJQsqaUBKTNV-1" source="71WJE7ZSkF-fX_JuGLKn-23" target="71WJE7ZSkF-fX_JuGLKn-24">
          <mxGeometry relative="1" as="geometry" />
        </mxCell>
        <mxCell id="71WJE7ZSkF-fX_JuGLKn-31" value="" style="edgeStyle=orthogonalEdgeStyle;rounded=0;orthogonalLoop=1;jettySize=auto;html=1;" edge="1" parent="WIyWlLk6GJQsqaUBKTNV-1" source="71WJE7ZSkF-fX_JuGLKn-23" target="71WJE7ZSkF-fX_JuGLKn-30">
          <mxGeometry relative="1" as="geometry" />
        </mxCell>
        <mxCell id="71WJE7ZSkF-fX_JuGLKn-23" value="If &amp;lt;=10" style="rhombus;whiteSpace=wrap;html=1;" vertex="1" parent="WIyWlLk6GJQsqaUBKTNV-1">
          <mxGeometry x="250" y="-1050" width="80" height="80" as="geometry" />
        </mxCell>
        <mxCell id="71WJE7ZSkF-fX_JuGLKn-28" value="" style="edgeStyle=orthogonalEdgeStyle;rounded=0;orthogonalLoop=1;jettySize=auto;html=1;" edge="1" parent="WIyWlLk6GJQsqaUBKTNV-1" source="71WJE7ZSkF-fX_JuGLKn-24" target="71WJE7ZSkF-fX_JuGLKn-25">
          <mxGeometry relative="1" as="geometry" />
        </mxCell>
        <mxCell id="71WJE7ZSkF-fX_JuGLKn-38" value="" style="edgeStyle=orthogonalEdgeStyle;rounded=0;orthogonalLoop=1;jettySize=auto;html=1;" edge="1" parent="WIyWlLk6GJQsqaUBKTNV-1" source="71WJE7ZSkF-fX_JuGLKn-24" target="71WJE7ZSkF-fX_JuGLKn-37">
          <mxGeometry relative="1" as="geometry" />
        </mxCell>
        <mxCell id="71WJE7ZSkF-fX_JuGLKn-24" value="If&amp;lt;=20" style="rhombus;whiteSpace=wrap;html=1;" vertex="1" parent="WIyWlLk6GJQsqaUBKTNV-1">
          <mxGeometry x="500" y="-1050" width="80" height="80" as="geometry" />
        </mxCell>
        <mxCell id="71WJE7ZSkF-fX_JuGLKn-29" value="" style="edgeStyle=orthogonalEdgeStyle;rounded=0;orthogonalLoop=1;jettySize=auto;html=1;" edge="1" parent="WIyWlLk6GJQsqaUBKTNV-1" source="71WJE7ZSkF-fX_JuGLKn-25" target="71WJE7ZSkF-fX_JuGLKn-26">
          <mxGeometry relative="1" as="geometry" />
        </mxCell>
        <mxCell id="71WJE7ZSkF-fX_JuGLKn-48" value="" style="edgeStyle=orthogonalEdgeStyle;rounded=0;orthogonalLoop=1;jettySize=auto;html=1;" edge="1" parent="WIyWlLk6GJQsqaUBKTNV-1" source="71WJE7ZSkF-fX_JuGLKn-25">
          <mxGeometry relative="1" as="geometry">
            <mxPoint x="839.9999999999998" y="-880" as="targetPoint" />
          </mxGeometry>
        </mxCell>
        <mxCell id="71WJE7ZSkF-fX_JuGLKn-25" value="if&amp;lt;=30" style="rhombus;whiteSpace=wrap;html=1;" vertex="1" parent="WIyWlLk6GJQsqaUBKTNV-1">
          <mxGeometry x="800" y="-1050" width="80" height="80" as="geometry" />
        </mxCell>
        <mxCell id="71WJE7ZSkF-fX_JuGLKn-64" value="" style="edgeStyle=orthogonalEdgeStyle;rounded=0;orthogonalLoop=1;jettySize=auto;html=1;" edge="1" parent="WIyWlLk6GJQsqaUBKTNV-1" source="71WJE7ZSkF-fX_JuGLKn-26" target="71WJE7ZSkF-fX_JuGLKn-58">
          <mxGeometry relative="1" as="geometry" />
        </mxCell>
        <mxCell id="71WJE7ZSkF-fX_JuGLKn-26" value="&amp;gt;30" style="rhombus;whiteSpace=wrap;html=1;" vertex="1" parent="WIyWlLk6GJQsqaUBKTNV-1">
          <mxGeometry x="1080" y="-1050" width="80" height="80" as="geometry" />
        </mxCell>
        <mxCell id="71WJE7ZSkF-fX_JuGLKn-30" value="tiền nước&amp;nbsp; = ( sô nước * số người )*giá trị 1" style="whiteSpace=wrap;html=1;" vertex="1" parent="WIyWlLk6GJQsqaUBKTNV-1">
          <mxGeometry x="170" y="-880" width="240" height="60" as="geometry" />
        </mxCell>
        <mxCell id="71WJE7ZSkF-fX_JuGLKn-36" value="tiền nước&amp;nbsp; = ( sô nước * số người )*giá trị 1" style="whiteSpace=wrap;html=1;" vertex="1" parent="WIyWlLk6GJQsqaUBKTNV-1">
          <mxGeometry x="170" y="-880" width="240" height="60" as="geometry" />
        </mxCell>
        <mxCell id="71WJE7ZSkF-fX_JuGLKn-40" value="" style="edgeStyle=orthogonalEdgeStyle;rounded=0;orthogonalLoop=1;jettySize=auto;html=1;" edge="1" parent="WIyWlLk6GJQsqaUBKTNV-1" source="71WJE7ZSkF-fX_JuGLKn-37">
          <mxGeometry relative="1" as="geometry">
            <mxPoint x="540" y="-740" as="targetPoint" />
          </mxGeometry>
        </mxCell>
        <mxCell id="71WJE7ZSkF-fX_JuGLKn-37" value="tiền nước 1&amp;nbsp; = ( sô nước * số người )*giá trị 1" style="whiteSpace=wrap;html=1;" vertex="1" parent="WIyWlLk6GJQsqaUBKTNV-1">
          <mxGeometry x="420" y="-880" width="240" height="60" as="geometry" />
        </mxCell>
        <mxCell id="71WJE7ZSkF-fX_JuGLKn-46" value="" style="edgeStyle=orthogonalEdgeStyle;rounded=0;orthogonalLoop=1;jettySize=auto;html=1;" edge="1" parent="WIyWlLk6GJQsqaUBKTNV-1" source="71WJE7ZSkF-fX_JuGLKn-41" target="71WJE7ZSkF-fX_JuGLKn-45">
          <mxGeometry relative="1" as="geometry" />
        </mxCell>
        <mxCell id="71WJE7ZSkF-fX_JuGLKn-41" value="tiền nước 2 = ( só nước * số người ) *giá trị 2" style="whiteSpace=wrap;html=1;" vertex="1" parent="WIyWlLk6GJQsqaUBKTNV-1">
          <mxGeometry x="420" y="-740" width="240" height="60" as="geometry" />
        </mxCell>
        <mxCell id="71WJE7ZSkF-fX_JuGLKn-45" value="tiền&amp;nbsp; nước = tiền nước 1 + tiền nước 2&amp;nbsp;" style="whiteSpace=wrap;html=1;fontStyle=0" vertex="1" parent="WIyWlLk6GJQsqaUBKTNV-1">
          <mxGeometry x="420" y="-600" width="240" height="60" as="geometry" />
        </mxCell>
        <mxCell id="71WJE7ZSkF-fX_JuGLKn-53" value="" style="edgeStyle=orthogonalEdgeStyle;rounded=0;orthogonalLoop=1;jettySize=auto;html=1;" edge="1" parent="WIyWlLk6GJQsqaUBKTNV-1" source="71WJE7ZSkF-fX_JuGLKn-49" target="71WJE7ZSkF-fX_JuGLKn-50">
          <mxGeometry relative="1" as="geometry" />
        </mxCell>
        <mxCell id="71WJE7ZSkF-fX_JuGLKn-49" value="tiền nước 1&amp;nbsp; = ( sô nước * số người )*giá trị 1" style="whiteSpace=wrap;html=1;" vertex="1" parent="WIyWlLk6GJQsqaUBKTNV-1">
          <mxGeometry x="710" y="-880" width="240" height="60" as="geometry" />
        </mxCell>
        <mxCell id="71WJE7ZSkF-fX_JuGLKn-54" value="" style="edgeStyle=orthogonalEdgeStyle;rounded=0;orthogonalLoop=1;jettySize=auto;html=1;" edge="1" parent="WIyWlLk6GJQsqaUBKTNV-1" source="71WJE7ZSkF-fX_JuGLKn-50" target="71WJE7ZSkF-fX_JuGLKn-51">
          <mxGeometry relative="1" as="geometry" />
        </mxCell>
        <mxCell id="71WJE7ZSkF-fX_JuGLKn-50" value="tiền nước 2 = ( sô nước * số người )*giá trị 2" style="whiteSpace=wrap;html=1;" vertex="1" parent="WIyWlLk6GJQsqaUBKTNV-1">
          <mxGeometry x="710" y="-740" width="240" height="60" as="geometry" />
        </mxCell>
        <mxCell id="71WJE7ZSkF-fX_JuGLKn-55" value="" style="edgeStyle=orthogonalEdgeStyle;rounded=0;orthogonalLoop=1;jettySize=auto;html=1;" edge="1" parent="WIyWlLk6GJQsqaUBKTNV-1" source="71WJE7ZSkF-fX_JuGLKn-51">
          <mxGeometry relative="1" as="geometry">
            <mxPoint x="829.9999999999998" y="-460" as="targetPoint" />
          </mxGeometry>
        </mxCell>
        <mxCell id="71WJE7ZSkF-fX_JuGLKn-51" value="tiền nước 3 = ( sô nước * số người )*giá trị 3" style="whiteSpace=wrap;html=1;" vertex="1" parent="WIyWlLk6GJQsqaUBKTNV-1">
          <mxGeometry x="710" y="-584" width="240" height="60" as="geometry" />
        </mxCell>
        <mxCell id="71WJE7ZSkF-fX_JuGLKn-100" value="" style="edgeStyle=orthogonalEdgeStyle;rounded=0;orthogonalLoop=1;jettySize=auto;html=1;" edge="1" parent="WIyWlLk6GJQsqaUBKTNV-1" source="71WJE7ZSkF-fX_JuGLKn-57" target="71WJE7ZSkF-fX_JuGLKn-99">
          <mxGeometry relative="1" as="geometry" />
        </mxCell>
        <mxCell id="71WJE7ZSkF-fX_JuGLKn-57" value="tiền&amp;nbsp; nước = tiền nước 1 + tiền nước 2 +tiền nước 3&amp;nbsp;" style="whiteSpace=wrap;html=1;fontStyle=0" vertex="1" parent="WIyWlLk6GJQsqaUBKTNV-1">
          <mxGeometry x="710" y="-460" width="240" height="60" as="geometry" />
        </mxCell>
        <mxCell id="71WJE7ZSkF-fX_JuGLKn-65" value="" style="edgeStyle=orthogonalEdgeStyle;rounded=0;orthogonalLoop=1;jettySize=auto;html=1;" edge="1" parent="WIyWlLk6GJQsqaUBKTNV-1" source="71WJE7ZSkF-fX_JuGLKn-58" target="71WJE7ZSkF-fX_JuGLKn-60">
          <mxGeometry relative="1" as="geometry" />
        </mxCell>
        <mxCell id="71WJE7ZSkF-fX_JuGLKn-58" value="tiền nước 1&amp;nbsp; = ( sô nước * số người )*giá trị 1" style="whiteSpace=wrap;html=1;" vertex="1" parent="WIyWlLk6GJQsqaUBKTNV-1">
          <mxGeometry x="1000" y="-880" width="240" height="60" as="geometry" />
        </mxCell>
        <mxCell id="71WJE7ZSkF-fX_JuGLKn-66" value="" style="edgeStyle=orthogonalEdgeStyle;rounded=0;orthogonalLoop=1;jettySize=auto;html=1;" edge="1" parent="WIyWlLk6GJQsqaUBKTNV-1" source="71WJE7ZSkF-fX_JuGLKn-60" target="71WJE7ZSkF-fX_JuGLKn-61">
          <mxGeometry relative="1" as="geometry" />
        </mxCell>
        <mxCell id="71WJE7ZSkF-fX_JuGLKn-60" value="tiền nước 2 = ( sô nước * số người )*giá trị 2" style="whiteSpace=wrap;html=1;" vertex="1" parent="WIyWlLk6GJQsqaUBKTNV-1">
          <mxGeometry x="1000" y="-740" width="240" height="60" as="geometry" />
        </mxCell>
        <mxCell id="71WJE7ZSkF-fX_JuGLKn-67" value="" style="edgeStyle=orthogonalEdgeStyle;rounded=0;orthogonalLoop=1;jettySize=auto;html=1;" edge="1" parent="WIyWlLk6GJQsqaUBKTNV-1" source="71WJE7ZSkF-fX_JuGLKn-61" target="71WJE7ZSkF-fX_JuGLKn-62">
          <mxGeometry relative="1" as="geometry" />
        </mxCell>
        <mxCell id="71WJE7ZSkF-fX_JuGLKn-61" value="tiền nước 3 = ( sô nước * số người )*giá trị 3" style="whiteSpace=wrap;html=1;" vertex="1" parent="WIyWlLk6GJQsqaUBKTNV-1">
          <mxGeometry x="1000" y="-590" width="240" height="60" as="geometry" />
        </mxCell>
        <mxCell id="71WJE7ZSkF-fX_JuGLKn-68" value="" style="edgeStyle=orthogonalEdgeStyle;rounded=0;orthogonalLoop=1;jettySize=auto;html=1;" edge="1" parent="WIyWlLk6GJQsqaUBKTNV-1" source="71WJE7ZSkF-fX_JuGLKn-62" target="71WJE7ZSkF-fX_JuGLKn-63">
          <mxGeometry relative="1" as="geometry" />
        </mxCell>
        <mxCell id="71WJE7ZSkF-fX_JuGLKn-62" value="tiền nước 4 = ( sô nước * số người )*giá trị 4" style="whiteSpace=wrap;html=1;" vertex="1" parent="WIyWlLk6GJQsqaUBKTNV-1">
          <mxGeometry x="1000" y="-460" width="240" height="60" as="geometry" />
        </mxCell>
        <mxCell id="71WJE7ZSkF-fX_JuGLKn-109" value="" style="edgeStyle=orthogonalEdgeStyle;rounded=0;orthogonalLoop=1;jettySize=auto;html=1;" edge="1" parent="WIyWlLk6GJQsqaUBKTNV-1" source="71WJE7ZSkF-fX_JuGLKn-63" target="71WJE7ZSkF-fX_JuGLKn-108">
          <mxGeometry relative="1" as="geometry" />
        </mxCell>
        <mxCell id="71WJE7ZSkF-fX_JuGLKn-121" style="edgeStyle=orthogonalEdgeStyle;rounded=0;orthogonalLoop=1;jettySize=auto;html=1;" edge="1" parent="WIyWlLk6GJQsqaUBKTNV-1" source="71WJE7ZSkF-fX_JuGLKn-63">
          <mxGeometry relative="1" as="geometry">
            <mxPoint x="830" y="-280" as="targetPoint" />
          </mxGeometry>
        </mxCell>
        <mxCell id="71WJE7ZSkF-fX_JuGLKn-63" value="tiền&amp;nbsp; nước = tiền nước 1 + tiền nước 2 +tiền nước 3 +tiền nước 4" style="whiteSpace=wrap;html=1;fontStyle=0" vertex="1" parent="WIyWlLk6GJQsqaUBKTNV-1">
          <mxGeometry x="1000" y="-310" width="240" height="60" as="geometry" />
        </mxCell>
        <mxCell id="71WJE7ZSkF-fX_JuGLKn-77" value="" style="edgeStyle=orthogonalEdgeStyle;rounded=0;orthogonalLoop=1;jettySize=auto;html=1;" edge="1" parent="WIyWlLk6GJQsqaUBKTNV-1" target="71WJE7ZSkF-fX_JuGLKn-76">
          <mxGeometry relative="1" as="geometry">
            <mxPoint x="95" y="-250" as="sourcePoint" />
          </mxGeometry>
        </mxCell>
        <mxCell id="71WJE7ZSkF-fX_JuGLKn-79" value="" style="edgeStyle=orthogonalEdgeStyle;rounded=0;orthogonalLoop=1;jettySize=auto;html=1;" edge="1" parent="WIyWlLk6GJQsqaUBKTNV-1" source="71WJE7ZSkF-fX_JuGLKn-76" target="71WJE7ZSkF-fX_JuGLKn-78">
          <mxGeometry relative="1" as="geometry" />
        </mxCell>
        <mxCell id="71WJE7ZSkF-fX_JuGLKn-86" value="" style="edgeStyle=orthogonalEdgeStyle;rounded=0;orthogonalLoop=1;jettySize=auto;html=1;" edge="1" parent="WIyWlLk6GJQsqaUBKTNV-1" source="71WJE7ZSkF-fX_JuGLKn-76" target="71WJE7ZSkF-fX_JuGLKn-83">
          <mxGeometry relative="1" as="geometry" />
        </mxCell>
        <mxCell id="71WJE7ZSkF-fX_JuGLKn-76" value="Production units" style="shape=parallelogram;perimeter=parallelogramPerimeter;whiteSpace=wrap;html=1;fixedSize=1;" vertex="1" parent="WIyWlLk6GJQsqaUBKTNV-1">
          <mxGeometry x="22.5" y="-140" width="145" height="60" as="geometry" />
        </mxCell>
        <mxCell id="71WJE7ZSkF-fX_JuGLKn-87" value="" style="edgeStyle=orthogonalEdgeStyle;rounded=0;orthogonalLoop=1;jettySize=auto;html=1;" edge="1" parent="WIyWlLk6GJQsqaUBKTNV-1" source="71WJE7ZSkF-fX_JuGLKn-78" target="71WJE7ZSkF-fX_JuGLKn-84">
          <mxGeometry relative="1" as="geometry" />
        </mxCell>
        <mxCell id="71WJE7ZSkF-fX_JuGLKn-78" value="Business Services" style="shape=parallelogram;perimeter=parallelogramPerimeter;whiteSpace=wrap;html=1;fixedSize=1;" vertex="1" parent="WIyWlLk6GJQsqaUBKTNV-1">
          <mxGeometry x="17.5" y="20" width="155" height="60" as="geometry" />
        </mxCell>
        <mxCell id="71WJE7ZSkF-fX_JuGLKn-85" value="" style="edgeStyle=orthogonalEdgeStyle;rounded=0;orthogonalLoop=1;jettySize=auto;html=1;" edge="1" parent="WIyWlLk6GJQsqaUBKTNV-1" source="71WJE7ZSkF-fX_JuGLKn-80" target="71WJE7ZSkF-fX_JuGLKn-82">
          <mxGeometry relative="1" as="geometry" />
        </mxCell>
        <mxCell id="71WJE7ZSkF-fX_JuGLKn-80" value="Administrative agency" style="shape=parallelogram;perimeter=parallelogramPerimeter;whiteSpace=wrap;html=1;fixedSize=1;" vertex="1" parent="WIyWlLk6GJQsqaUBKTNV-1">
          <mxGeometry x="26" y="-310" width="144" height="60" as="geometry" />
        </mxCell>
        <mxCell id="71WJE7ZSkF-fX_JuGLKn-113" value="" style="edgeStyle=orthogonalEdgeStyle;rounded=0;orthogonalLoop=1;jettySize=auto;html=1;" edge="1" parent="WIyWlLk6GJQsqaUBKTNV-1" source="71WJE7ZSkF-fX_JuGLKn-82" target="71WJE7ZSkF-fX_JuGLKn-112">
          <mxGeometry relative="1" as="geometry" />
        </mxCell>
        <mxCell id="71WJE7ZSkF-fX_JuGLKn-123" style="edgeStyle=orthogonalEdgeStyle;rounded=0;orthogonalLoop=1;jettySize=auto;html=1;exitX=1;exitY=0.5;exitDx=0;exitDy=0;" edge="1" parent="WIyWlLk6GJQsqaUBKTNV-1" source="71WJE7ZSkF-fX_JuGLKn-82">
          <mxGeometry relative="1" as="geometry">
            <mxPoint x="830" y="-279.33333333333303" as="targetPoint" />
          </mxGeometry>
        </mxCell>
        <mxCell id="71WJE7ZSkF-fX_JuGLKn-82" value="tiền nước = ( sô nước * số người )*giá trị 5" style="whiteSpace=wrap;html=1;" vertex="1" parent="WIyWlLk6GJQsqaUBKTNV-1">
          <mxGeometry x="230" y="-310" width="240" height="60" as="geometry" />
        </mxCell>
        <mxCell id="71WJE7ZSkF-fX_JuGLKn-111" value="" style="edgeStyle=orthogonalEdgeStyle;rounded=0;orthogonalLoop=1;jettySize=auto;html=1;" edge="1" parent="WIyWlLk6GJQsqaUBKTNV-1" source="71WJE7ZSkF-fX_JuGLKn-83" target="71WJE7ZSkF-fX_JuGLKn-110">
          <mxGeometry relative="1" as="geometry" />
        </mxCell>
        <mxCell id="71WJE7ZSkF-fX_JuGLKn-120" style="edgeStyle=orthogonalEdgeStyle;rounded=0;orthogonalLoop=1;jettySize=auto;html=1;entryX=0;entryY=0.5;entryDx=0;entryDy=0;" edge="1" parent="WIyWlLk6GJQsqaUBKTNV-1" source="71WJE7ZSkF-fX_JuGLKn-83" target="71WJE7ZSkF-fX_JuGLKn-114">
          <mxGeometry relative="1" as="geometry" />
        </mxCell>
        <mxCell id="71WJE7ZSkF-fX_JuGLKn-83" value="tiền nước&amp;nbsp; = ( sô nước * số người )*giá trị 6" style="whiteSpace=wrap;html=1;" vertex="1" parent="WIyWlLk6GJQsqaUBKTNV-1">
          <mxGeometry x="240" y="-140" width="240" height="60" as="geometry" />
        </mxCell>
        <mxCell id="71WJE7ZSkF-fX_JuGLKn-115" value="" style="edgeStyle=orthogonalEdgeStyle;rounded=0;orthogonalLoop=1;jettySize=auto;html=1;" edge="1" parent="WIyWlLk6GJQsqaUBKTNV-1" source="71WJE7ZSkF-fX_JuGLKn-84" target="71WJE7ZSkF-fX_JuGLKn-114">
          <mxGeometry relative="1" as="geometry" />
        </mxCell>
        <mxCell id="71WJE7ZSkF-fX_JuGLKn-84" value="tiền nước&amp;nbsp; = ( sô nước * số người )*giá trị 7" style="whiteSpace=wrap;html=1;" vertex="1" parent="WIyWlLk6GJQsqaUBKTNV-1">
          <mxGeometry x="240" y="20" width="240" height="60" as="geometry" />
        </mxCell>
        <mxCell id="71WJE7ZSkF-fX_JuGLKn-99" value="" style="whiteSpace=wrap;html=1;fontStyle=0;" vertex="1" parent="WIyWlLk6GJQsqaUBKTNV-1">
          <mxGeometry x="770" y="-140" width="120" height="60" as="geometry" />
        </mxCell>
        <mxCell id="71WJE7ZSkF-fX_JuGLKn-105" style="edgeStyle=orthogonalEdgeStyle;rounded=0;orthogonalLoop=1;jettySize=auto;html=1;exitX=0.5;exitY=1;exitDx=0;exitDy=0;" edge="1" parent="WIyWlLk6GJQsqaUBKTNV-1" source="71WJE7ZSkF-fX_JuGLKn-99" target="71WJE7ZSkF-fX_JuGLKn-99">
          <mxGeometry relative="1" as="geometry" />
        </mxCell>
        <mxCell id="71WJE7ZSkF-fX_JuGLKn-108" value="" style="whiteSpace=wrap;html=1;fontStyle=0;" vertex="1" parent="WIyWlLk6GJQsqaUBKTNV-1">
          <mxGeometry x="770" y="-140" width="120" height="60" as="geometry" />
        </mxCell>
        <mxCell id="71WJE7ZSkF-fX_JuGLKn-110" value="" style="whiteSpace=wrap;html=1;" vertex="1" parent="WIyWlLk6GJQsqaUBKTNV-1">
          <mxGeometry x="770" y="-140" width="120" height="60" as="geometry" />
        </mxCell>
        <mxCell id="71WJE7ZSkF-fX_JuGLKn-112" value="" style="whiteSpace=wrap;html=1;" vertex="1" parent="WIyWlLk6GJQsqaUBKTNV-1">
          <mxGeometry x="770" y="-140" width="120" height="60" as="geometry" />
        </mxCell>
        <mxCell id="71WJE7ZSkF-fX_JuGLKn-125" value="" style="edgeStyle=orthogonalEdgeStyle;rounded=0;orthogonalLoop=1;jettySize=auto;html=1;" edge="1" parent="WIyWlLk6GJQsqaUBKTNV-1" source="71WJE7ZSkF-fX_JuGLKn-114" target="71WJE7ZSkF-fX_JuGLKn-124">
          <mxGeometry relative="1" as="geometry" />
        </mxCell>
        <mxCell id="71WJE7ZSkF-fX_JuGLKn-114" value="só tiền = số tiền + (số tiền*20)/100" style="whiteSpace=wrap;html=1;" vertex="1" parent="WIyWlLk6GJQsqaUBKTNV-1">
          <mxGeometry x="685" y="-140" width="290" height="60" as="geometry" />
        </mxCell>
        <mxCell id="71WJE7ZSkF-fX_JuGLKn-127" value="" style="edgeStyle=orthogonalEdgeStyle;rounded=0;orthogonalLoop=1;jettySize=auto;html=1;" edge="1" parent="WIyWlLk6GJQsqaUBKTNV-1" source="71WJE7ZSkF-fX_JuGLKn-124" target="71WJE7ZSkF-fX_JuGLKn-126">
          <mxGeometry relative="1" as="geometry" />
        </mxCell>
        <mxCell id="71WJE7ZSkF-fX_JuGLKn-124" value="in ra bill" style="shape=parallelogram;perimeter=parallelogramPerimeter;whiteSpace=wrap;html=1;fixedSize=1;" vertex="1" parent="WIyWlLk6GJQsqaUBKTNV-1">
          <mxGeometry x="1140" y="-140" width="190" height="60" as="geometry" />
        </mxCell>
        <mxCell id="71WJE7ZSkF-fX_JuGLKn-126" value="Exit" style="rounded=1;whiteSpace=wrap;html=1;" vertex="1" parent="WIyWlLk6GJQsqaUBKTNV-1">
          <mxGeometry x="1175" width="120" height="60" as="geometry" />
        </mxCell>
      </root>
    </mxGraphModel>
  </diagram>
</mxfile>
